<?xml version="1.0" encoding="utf-8"?>
<!-- Generator: Adobe Illustrator 17.0.0, SVG Export Plug-In . SVG Version: 6.00 Build 0)  -->
<!DOCTYPE svg PUBLIC "-//W3C//DTD SVG 1.1//EN" "http://www.w3.org/Graphics/SVG/1.1/DTD/svg11.dtd">
<svg version="1.1" id="Layer_1" xmlns="http://www.w3.org/2000/svg" xmlns:xlink="http://www.w3.org/1999/xlink" x="0px" y="0px"
	 width="1025px" height="1024px" viewBox="0 0 1025 1024" enable-background="new 0 0 1025 1024" xml:space="preserve">
<g>
	<path d="M486.5 973c-2.333 0-4.499-0.25-6.499-0.75s-4-1.25-6-2.25c-1.333-0.667-8.834-5.083-22.5-13.25s-31.416-19.583-53.25-34.25-46.584-32.5-74.25-53.5-56-44.5-85-70.5c-17.334-15.667-33.667-31.333-49-47s-29.834-31.333-43.5-46.999-26.416-31.417-38.25-47.25-22.584-31.584-32.25-47.25c-12.666-20-23.75-40.084-33.25-60.25s-17.416-40.167-23.75-60-11.084-39.667-14.25-59.501-4.75-39.417-4.75-58.75c0-37 7.083-71.833 21.25-104.5s33.416-61.167 57.75-85.5 52.75-43.583 85.25-57.75 67.416-21.25 104.75-21.25c12.334 0 24.917 1.167 37.75 3.5s25.584 5.75 38.25 10.25 25.25 10 37.75 16.5 24.584 14.083 36.25 22.75c13.666 10 26.166 20.917 37.5 32.75s21.334 24.083 30 36.75c8.334-12.667 18.25-24.917 29.75-36.75s24.083-22.75 37.75-32.75c11.667-8.667 23.667-16.25 36-22.75s24.833-12 37.5-16.5 25.417-7.917 38.25-10.25 25.583-3.5 38.25-3.5c37 0 71.833 7.083 104.5 21.25s61.167 33.417 85.5 57.75 43.583 52.833 57.75 85.5 21.25 67.5 21.25 104.5c0 19.333-1.667 38.917-5 58.75s-8.167 39.667-14.5 59.5-14.167 39.834-23.5 60-20.333 40.25-33 60.25c-10 15.666-20.833 31.416-32.5 47.25s-24.333 31.584-38 47.25-28.25 31.333-43.75 47l-48.75 47c-29 26-57.333 49.5-85 70.5s-52.417 38.833-74.25 53.5-39.667 26.083-53.5 34.25-21.25 12.583-22.25 13.25c-2 1-4.083 1.75-6.25 2.25s-4.25 0.75-6.25 0.75v0zM269.001 154c-30 0-58.249 5.667-84.749 17s-49.583 26.833-69.25 46.5-35.25 42.75-46.75 69.25-17.25 54.75-17.25 84.75c0 39 6.834 76.833 20.5 113.5s31.166 71.583 52.5 104.75 45.083 64.083 71.25 92.75 51.917 54.333 77.25 77c22.334 20.666 44.584 39.583 66.75 56.75s42.75 32.417 61.75 45.75 35.916 24.75 50.75 34.25l34.75 21.75 34.25-21.75 51-34.25c19.167-13.333 39.75-28.583 61.75-45.75s44.333-36.083 67-56.75c25-22.666 50.667-48.333 77-77s50.167-59.583 71.5-92.75 38.75-68.083 52.25-104.75 20.25-74.5 20.25-113.5c0-30-5.667-58.25-17-84.75s-26.917-49.583-46.75-69.25-42.917-35.167-69.25-46.5-54.5-17-84.5-17c-21.667 0-42.917 4-63.75 12s-40 18.5-57.5 31.5-32.583 27.667-45.25 44-21.667 32.5-27 48.5c-1.667 5-4.75 9.167-9.25 12.5s-9.416 5-14.75 5c-5.666 0-10.75-1.667-15.25-5s-7.584-7.5-9.25-12.5c-5.334-16-14.334-32.167-27-48.5s-27.666-31-45-44-36.417-23.5-57.25-31.5-42.084-12-63.75-12v0z"/>
</g>
</svg>
