<?xml version="1.0" encoding="utf-8"?>
<!-- Generator: Adobe Illustrator 17.0.0, SVG Export Plug-In . SVG Version: 6.00 Build 0)  -->
<!DOCTYPE svg PUBLIC "-//W3C//DTD SVG 1.1//EN" "http://www.w3.org/Graphics/SVG/1.1/DTD/svg11.dtd">
<svg version="1.1" id="Layer_1" xmlns="http://www.w3.org/2000/svg" xmlns:xlink="http://www.w3.org/1999/xlink" x="0px" y="0px"
	 width="1025px" height="1024px" viewBox="0 0 1025 1024" enable-background="new 0 0 1025 1024" xml:space="preserve">
<g>
	<path d="M819 1024c-22.667 0-45.666-1.583-69-4.75s-47-7.917-71-14.25-48.167-14.25-72.5-23.75-49-20.583-74-33.25c-23-11.667-45.834-24.583-68.5-38.75s-45-29.416-67-45.75-43.666-33.667-65-52-42-37.333-62-57c-19.666-20-38.666-40.667-57-62s-35.584-43-51.75-65-31.333-44.417-45.499-67.25-27.083-45.583-38.749-68.25c-12.666-25-23.75-49.75-33.25-74.25s-17.416-48.75-23.75-72.75-11.167-47.667-14.501-71-5-46.333-5-69c0-14.667 3-29.083 9-43.25s13.166-27.25 21.5-39.25 16.917-22.75 25.751-32.25 16.25-16.917 22.25-22.25c8.334-8 17.834-16 28.5-24s21.583-15.25 32.749-21.75 22.333-11.833 33.5-16 21.583-6.25 31.25-6.25c9.334 0 19.834 3.25 31.5 9.75s24.833 16.583 39.5 30.25c10.666 10 22 21.667 34 35s24.166 28 36.5 44l20 26.75c9.666 13.167 19.583 27.917 29.75 44.25s19.166 32.833 27 49.5 11.75 30.833 11.75 42.5c0 19-9.084 35.667-27.25 50s-38.75 28.667-61.75 43l-26 16.25c-8.666 5.5-16.333 10.917-23 16.25-7 5.667-11.584 10-13.75 13s-3.25 4.833-3.25 5.5c12 30.333 29.666 61.667 53 94s49.584 63.083 78.75 92.25 59.916 55.417 92.25 78.75 63.667 41.167 94 53.5c0.667-0.333 2.5-1.5 5.5-3.5s7.333-6.5 13-13.5c5.333-6.667 10.75-14.333 16.25-23l16.75-26.5c14-23 28.167-43.583 42.5-61.75s31.167-27.25 50.5-27.25c11.667 0 25.833 3.917 42.5 11.75s33.083 16.833 49.25 27 30.833 20.083 44 29.75l27.25 20c15.667 12.334 30.25 24.5 43.75 36.5s25.25 23.5 35.25 34.5c13.333 14.666 23.25 27.75 29.75 39.25s9.75 22.084 9.75 31.75-2.083 20.083-6.25 31.25-9.5 22.333-16 33.5-13.75 22.083-21.75 32.75-15.833 20.166-23.5 28.5c-5.333 6-12.75 13.416-22.25 22.25s-20.333 17.5-32.5 26-25.333 15.666-39.5 21.5-28.583 8.75-43.25 8.75v0zM204.5 51.5c-7 0-18.835 4.334-35.501 13.001s-35.167 22.333-55.5 41c-19 17.667-34 35.417-45 53.25s-16.5 33.25-16.5 46.25c0 86 23.834 174.417 71.5 265.25s108.667 173.5 183 248 156.833 135.583 247.5 183.25 179 71.5 265 71.5c13.333 0 28.917-5.583 46.75-16.75s35.417-26.25 52.75-45.25c18.667-20.333 32.333-38.917 41-55.75s13.167-28.75 13.5-35.75c-1-4.667-9.083-16.083-24.25-34.25s-41.25-41.416-78.25-69.75c-15.667-12.334-30.583-23.167-44.75-32.5s-26.833-17.167-38-23.5-20.667-11.084-28.5-14.25-13.417-4.917-16.75-5.25c-0.333 0.333-2 1.5-5 3.5s-7.333 6.666-13 14c-5 6.334-10.167 13.667-15.5 22l-16 25.5c-14.333 23.333-28.833 44.25-43.5 62.75s-31.833 27.75-51.5 27.75c-3.333 0-6.5-0.25-9.5-0.75s-6-1.417-9-2.75c-33.667-13.333-68.166-32.667-103.5-58s-68.834-53.834-100.5-85.5-60.083-65.083-85.25-100.25-44.583-69.583-58.25-103.25c-3-8-3.667-18.083-2-30.25s10.5-25.583 26.5-40.25c8.334-7.333 18.084-14.667 29.25-22l33.75-21.5 25-15.5c8.334-5.333 15.834-10.5 22.5-15.5 7.334-6 12-10.5 14-13.5s3-4.667 3-5c0-3.333-1.667-8.917-5-16.75s-8.167-17.333-14.5-28.5-14.167-23.75-23.5-37.75-20-29-32-45c-28.666-36.667-52-62.667-70-78s-29.5-23.333-34.5-24v0z"/>
</g>
</svg>
